<svg data-v-0dd9719b="" version="1.0" xmlns="http://www.w3.org/2000/svg" xmlns:xlink="http://www.w3.org/1999/xlink" width="100%" height="100%" viewBox="0 0 340.000000 250.000000" preserveAspectRatio="xMidYMid meet" color-interpolation-filters="sRGB" style="margin: auto;"> <rect data-v-0dd9719b="" x="0" y="0" width="100%" height="100%" fill="#fff" fill-opacity="1" class="background"></rect> <rect data-v-0dd9719b="" x="0" y="0" width="100%" height="100%" fill="url(#watermark)" fill-opacity="1" class="watermarklayer"></rect> <g data-v-0dd9719b="" fill="#333" class="icon-text-wrapper icon-svg-group iconsvg" transform="translate(47.37999725341797,95.00180053710938)"><g class="iconsvg-imagesvg" transform="translate(0,0)"><g><rect fill="#333" fill-opacity="0" stroke-width="2" x="0" y="0" width="60" height="59.996400215987045" class="image-rect"></rect> <svg x="0" y="0" width="60" height="59.996400215987045" filtersec="colorsb6999759635" class="image-svg-svg primary" style="overflow: visible;"><svg xmlns="http://www.w3.org/2000/svg" viewBox="-0.005915164947509766 -0.0032501220703125 100.00916290283203 100.00305938720703"><path d="M97.79 58.53L87.06 44.81a58.94 58.94 0 0 1-5-7.79L72.32 42l-9.14 27.73 4.92 9.75a60.75 60.75 0 0 1 8.64-3.3l16.78-4.67c6.48-1.81 8.48-7.65 4.27-12.98z" fill="#00d495"></path><path d="M30.27 63.18l-9.76 4.92a58.55 58.55 0 0 1 3.31 8.64l4.67 16.78c1.81 6.52 7.65 8.45 13 4.27l13.7-10.73a58.94 58.94 0 0 1 7.79-5l-4.93-9.75z" fill="#7fe000"></path><path d="M36.82 30.27l-4.93-9.76a57.37 57.37 0 0 1-8.63 3.31L6.48 28.49C0 30.3-2 36.14 2.2 41.47l10.74 13.72a58.94 58.94 0 0 1 5 7.79l9.75-4.93z" fill="#00a2ff"></path><path d="M69.73 36.82l9.75-4.92a60 60 0 0 1-3.3-8.64L71.51 6.48C69.7 0 63.85-2 58.53 2.21L44.81 12.94a58.94 58.94 0 0 1-7.79 5L42 27.68z" fill="#00c0d9"></path></svg></svg> <!----></g></g> <g transform="translate(67,10.058198928833008)"><g data-gra="path-name" fill-rule="" class="tp-name iconsvg-namesvg"><g transform="scale(1)"><g><path d="M0 0L7.92-37.24 20.65-37.24 13.72-4.93 25.63-4.93 24.63 0 0 0ZM45.63-25.87L45.63-25.87Q52.61-25.87 55.78-23.4L55.78-23.4Q59.12-20.82 59.12-14.84L59.12-14.84Q59.12-11.14 57.89-8.18 56.66-5.22 54.43-3.28L54.43-3.28Q49.97 0.47 41.52 0.47L41.52 0.47Q34.31 0.47 31.2-2.29L31.2-2.29Q27.86-5.16 27.86-10.91L27.86-10.91Q27.86-14.72 29.41-17.83 30.97-20.94 33.9-22.99L33.9-22.99Q38.18-25.87 45.63-25.87ZM41.64-3.52L41.64-3.52Q43.11-3.52 44.19-5.16 45.28-6.8 45.92-9.18 46.57-11.55 46.89-14.11 47.21-16.66 47.21-18.53L47.21-18.53Q47.21-20.18 46.89-21.03 46.57-21.88 45.51-21.88L45.51-21.88Q43.93-21.88 42.79-20.18 41.64-18.48 40.94-16.13 40.23-13.78 39.91-11.32 39.59-8.86 39.59-7.33L39.59-7.33Q39.59-3.52 41.64-3.52ZM76.25-21.47L76.6-21.47Q77.83-22.64 79.35-23.64L79.35-23.64Q80.7-24.46 82.52-25.16 84.34-25.87 86.57-25.87L86.57-25.87Q89.62-25.87 91.61-24.31 93.61-22.76 93.61-20.06L93.61-20.06Q93.61-19.3 93.43-18.21 93.26-17.13 93.02-15.95 92.79-14.78 92.52-13.58 92.26-12.38 92.08-11.44L92.08-11.44 89.62 0 77.71 0 80.94-15.31Q81.06-16.07 81.23-16.86 81.41-17.65 81.41-18.3L81.41-18.3Q81.41-19.18 80.97-19.74 80.53-20.29 79.65-20.29L79.65-20.29Q78.59-20.29 77.62-19.53 76.66-18.77 76.13-18.24L76.13-18.24 72.26 0 60.29 0 65.63-25.22 75.19-25.22 76.25-21.47ZM115.84-21.41L119.65-39.41 131.67-39.41 123.28 0 113.78 0 112.73-3.75 112.32-3.75Q111.96-3.23 111.23-2.49 110.5-1.76 109.38-1.09 108.27-0.41 106.74 0.03 105.22 0.47 103.23 0.47L103.23 0.47Q101.17 0.47 99.74-0.15 98.3-0.76 97.39-1.82 96.48-2.87 96.07-4.37 95.66-5.87 95.66-7.62L95.66-7.62Q95.66-8.39 95.78-10.06 95.89-11.73 96.33-13.75 96.77-15.78 97.62-17.92 98.48-20.06 99.91-21.82 101.35-23.58 103.46-24.72 105.57-25.87 108.56-25.87L108.56-25.87Q109.5-25.87 110.56-25.69 111.61-25.51 112.58-25.04 113.55-24.57 114.31-23.7 115.07-22.82 115.43-21.41L115.43-21.41 115.84-21.41ZM112.49-20.12L112.49-20.12Q111.09-20.12 110.15-18.56 109.21-17.01 108.62-14.96 108.04-12.9 107.77-10.85 107.51-8.8 107.51-7.8L107.51-7.8Q107.51-6.63 107.86-5.84 108.21-5.04 109.21-5.04L109.21-5.04Q109.79-5.04 110.35-5.31 110.91-5.57 111.41-5.95 111.91-6.33 112.26-6.74 112.61-7.16 112.84-7.45L112.84-7.45 115.13-18.12Q114.72-18.77 114.05-19.44 113.37-20.12 112.49-20.12ZM145.87-25.22L140.41 0 128.5 0 133.84-25.22 145.87-25.22ZM147.39-32.9L147.39-32.9Q147.39-31.55 146.83-30.56 146.28-29.56 145.37-28.86 144.46-28.15 143.28-27.8 142.11-27.45 140.88-27.45L140.88-27.45Q138.53-27.45 136.95-28.56 135.37-29.68 135.37-32.08L135.37-32.08Q135.37-33.37 135.89-34.4 136.42-35.43 137.33-36.1 138.24-36.77 139.44-37.13 140.65-37.48 141.94-37.48L141.94-37.48Q144.22-37.48 145.81-36.36 147.39-35.25 147.39-32.9ZM164.75-25.87L164.75-25.87Q171.73-25.87 174.9-23.4L174.9-23.4Q178.24-20.82 178.24-14.84L178.24-14.84Q178.24-11.14 177.01-8.18 175.78-5.22 173.55-3.28L173.55-3.28Q169.09 0.47 160.65 0.47L160.65 0.47Q153.43 0.47 150.32-2.29L150.32-2.29Q146.98-5.16 146.98-10.91L146.98-10.91Q146.98-14.72 148.53-17.83 150.09-20.94 153.02-22.99L153.02-22.99Q157.3-25.87 164.75-25.87ZM160.76-3.52L160.76-3.52Q162.23-3.52 163.31-5.16 164.4-6.8 165.04-9.18 165.69-11.55 166.01-14.11 166.33-16.66 166.33-18.53L166.33-18.53Q166.33-20.18 166.01-21.03 165.69-21.88 164.63-21.88L164.63-21.88Q163.05-21.88 161.91-20.18 160.76-18.48 160.06-16.13 159.35-13.78 159.03-11.32 158.71-8.86 158.71-7.33L158.71-7.33Q158.71-3.52 160.76-3.52Z" transform="translate(0, 39.40999984741211)"></path></g> <!----> <!----> <!----> <!----> <!----> <!----> <!----></g></g> <!----></g></g><defs v-gra="od"></defs></svg>